<svg fill="none" height="48" viewBox="0 0 48 48" width="48" xmlns="http://www.w3.org/2000/svg"><path d="m0 0h48v48h-48z" fill="#fff" fill-opacity=".01"/><g fill="#2f88ff" stroke="#000" stroke-linecap="round" stroke-linejoin="round" stroke-width="4"><path d="m24 20c3.866 0 7-3.134 7-7 0-3.86599-3.134-7-7-7s-7 3.13401-7 7c0 3.866 3.134 7 7 7z"/><path d="m6 40.8v1.2h36v-1.2c0-4.4804 0-6.7206-.8719-8.4319-.767-1.5053-1.9909-2.7292-3.4962-3.4962-1.7113-.8719-3.9515-.8719-8.4319-.8719h-10.4c-4.4804 0-6.7206 0-8.4319.8719-1.50532.767-2.72917 1.9909-3.49615 3.4962-.87195 1.7113-.87195 3.9515-.87195 8.4319z"/></g></svg>